<svg viewBox="68.397 28.142 78.594 95.013">
  <g transform="matrix(1, 0, 0, 1, 59.858963, 25.646988)">
    <g>
      <path d="M46.828,58.158c0,3.57,0,7.139,0.003,10.711c-6.823-5.271-13.646-10.545-20.465-15.816    c-1.267-0.928-2.073-2.492-2.073-4.296c0-1.456,0.542-2.752,1.407-3.692h4.202C35.542,49.428,41.184,53.793,46.828,58.158z     M33.903,45.064h12.921l0.003,9.993L33.903,45.064z M65.166,4.894h3.505c0.686,0,1.048,0.24,1.313,0.872    c4.592,10.949,9.188,21.895,13.782,32.842c0.533,1.271,2.068,3.822-2.766,3.822c-1.033,0-2.685,0.003-4.666,0.007L65.166,4.894z     M64,42.467c-0.919,0.002-1.807,0.004-2.642,0.005V34.68c0,0,0.01-0.119,0.006-0.32l-0.297-1.587    c-0.234-0.645-0.652-1.332-1.387-1.848c-1.76-1.228-4.431-0.771-4.431-0.771c-2.213,0.18-4.191,1.117-5.673,2.618    c0,0-0.758,0.447-1.25,1.587c-0.858,1.384-1.394,3.05-1.495,4.919c-0.003,1.058-0.006,2.117-0.006,3.176    C35.549,42.443,17.832,42.419,14,42.419c-3.781,0.018-2.648-2.875-2.503-3.264S25.674,5.759,25.674,5.759    c0.268-0.628,0.626-0.865,1.309-0.865h30.519L64,42.467z M65.282,56.891l-3.924,3.082v-6.016L65.282,56.891z M42.976,77.961    c-5.579-4.307-11.158-8.615-16.737-12.922c-1.234-0.934-2.03-2.494-2.03-4.266c0-1.885,0.911-3.535,2.272-4.443    c0.01,0.02,0.023,0.037,0.036,0.055c6.533,5.051,13.068,10.102,19.601,15.15C44.66,73.537,43.622,75.662,42.976,77.961z     M83.809,97.506h2.177V59.689c0-5.752-2.366-10.816-6.195-13.894c-0.317-0.245-0.943-0.731-0.943-0.731l3.043-0.001    c5.333,0,5.892-3.563,4.745-6.195c-4.116-9.452-8.26-18.891-12.389-28.335h4.525c1.005,0,1.42-0.417,1.42-1.423V3.917    c0-1.004-0.415-1.422-1.42-1.422H16.908c-1.005,0-1.42,0.418-1.42,1.422v5.202c0,1.004,0.415,1.42,1.42,1.42h4.479    C17.254,20.024,9.982,36.656,8.991,38.995s-0.757,6.058,4.853,6.058c6.178,0,5.593,0.01,8.901,0.015    c-0.525,1.094-0.835,2.341-0.835,3.676c0,2.433,0.976,4.581,2.563,6.007c-1.57,1.424-2.576,3.592-2.576,6.01    c0,2.697,1.247,5.072,3.131,6.467c5.788,4.473,11.576,8.945,17.367,13.418c-0.173,1.178-0.265,2.402-0.265,3.676v13.186h2.374    V84.307c0.01-4.91,1.825-9.359,4.704-12.623V40.35c0.147-4.397,2.84-7.587,7-7.587c0.064,0,0.822,0.013,1.148,0.007    c0.924,0.084,1.613,0.842,1.584,1.851c-0.01-0.003-0.02-0.005-0.026-0.006c0.01,12.358,0.022,24.716,0.032,37.075    c0.804-0.004,1.609-0.004,2.413-0.006v-8.553l9.078-7.063c-0.45-0.709-0.897-1.416-1.345-2.121    c-0.598,0.453-1.194,0.91-1.789,1.363c-1.981-1.514-3.963-3.031-5.944-4.547v-5.7h13.424c1.172,0.911,2.344,1.818,3.516,2.729    c3.333,2.631,5.507,6.928,5.507,11.801C83.805,72.23,83.805,84.869,83.809,97.506z"></path>
    </g>
  </g>
  <polygon points="97.954 39.423 87.422 47.849 89.964 50.659 96.512 43.437 95.942 56.264 100.002 56.264 99.417 43.429 105.958 50.651 108.501 47.845"></polygon>
</svg>
