<svg viewBox="132.324 65.886 70 86">
  <path d="M 133.137 65.886 C 132.678 65.974 132.316 66.42 132.324 66.886 L 132.324 79.886 C 132.324 80.41 132.801 80.886 133.324 80.886 L 146.324 80.886 C 146.847 80.886 147.324 80.41 147.324 79.886 L 147.324 66.886 C 147.324 66.363 146.847 65.886 146.324 65.886 C 141.935 65.886 137.511 65.886 133.137 65.886 Z M 160.136 65.886 C 159.677 65.974 159.315 66.42 159.323 66.886 L 159.323 79.886 C 159.323 80.41 159.8 80.886 160.323 80.886 L 173.323 80.886 C 173.847 80.886 174.323 80.41 174.323 79.886 L 174.323 66.886 C 174.323 66.363 173.847 65.886 173.323 65.886 C 168.934 65.886 164.51 65.886 160.136 65.886 Z M 187.135 65.886 C 186.677 65.974 186.314 66.42 186.323 66.886 L 186.323 79.886 C 186.323 80.41 186.799 80.886 187.323 80.886 L 200.322 80.886 C 200.846 80.886 201.322 80.41 201.322 79.886 L 201.322 66.886 C 201.322 66.363 200.846 65.886 200.322 65.886 C 195.933 65.886 191.509 65.886 187.135 65.886 Z M 134.324 67.886 L 145.324 67.886 L 145.324 78.886 L 134.324 78.886 L 134.324 67.886 Z M 161.323 67.886 L 172.323 67.886 L 172.323 78.886 L 161.323 78.886 L 161.323 67.886 Z M 188.323 67.886 L 199.322 67.886 L 199.322 78.886 L 188.323 78.886 L 188.323 67.886 Z M 133.137 89.886 C 132.678 89.974 132.316 90.42 132.324 90.886 L 132.324 103.886 C 132.324 104.41 132.801 104.886 133.324 104.886 L 146.324 104.886 C 146.847 104.886 147.324 104.41 147.324 103.886 L 147.324 90.886 C 147.324 90.363 146.847 89.886 146.324 89.886 C 141.935 89.886 137.511 89.886 133.137 89.886 Z M 160.136 89.886 C 159.677 89.974 159.315 90.42 159.323 90.886 L 159.323 96.886 C 159.274 97.41 159.706 97.931 160.23 97.98 C 160.753 98.029 161.274 97.597 161.323 97.074 L 161.323 118.324 C 160.152 119.095 158.265 120.069 156.573 122.043 C 154.718 124.206 153.268 127.546 153.324 132.886 C 153.483 139.562 158.197 145.285 160.386 151.23 C 160.525 151.611 160.917 151.886 161.323 151.886 L 198.322 151.886 C 198.807 151.886 199.262 151.492 199.322 151.011 L 202.322 127.011 C 202.325 126.969 202.325 126.928 202.322 126.886 C 202.324 125.223 201.96 123.767 201.322 122.48 L 201.322 115.886 C 201.322 115.363 200.846 114.886 200.322 114.886 C 195.933 114.886 191.509 114.886 187.135 114.886 C 181.961 113.964 176.488 113.61 172.323 112.98 L 172.323 97.011 C 172.356 97.535 172.862 97.981 173.385 97.949 C 173.909 97.916 174.356 97.41 174.323 96.886 L 174.323 90.886 C 174.323 90.363 173.847 89.886 173.323 89.886 C 168.934 89.886 164.51 89.886 160.136 89.886 Z M 187.135 89.886 C 186.677 89.974 186.314 90.42 186.323 90.886 L 186.323 103.886 C 186.323 104.41 186.799 104.886 187.323 104.886 L 200.322 104.886 C 200.846 104.886 201.322 104.41 201.322 103.886 L 201.322 90.886 C 201.322 90.363 200.846 89.886 200.322 89.886 C 195.933 89.886 191.509 89.886 187.135 89.886 Z M 134.324 91.886 L 145.324 91.886 L 145.324 102.886 L 134.324 102.886 L 134.324 91.886 Z M 161.323 91.886 L 163.23 91.886 C 162.907 92.14 162.616 92.429 162.386 92.761 C 161.585 93.915 161.323 95.364 161.323 96.886 L 161.323 91.886 Z M 170.261 91.886 L 172.323 91.886 L 172.323 96.886 C 172.323 95.431 172.009 93.976 171.198 92.824 C 170.942 92.46 170.621 92.164 170.261 91.886 Z M 188.323 91.886 L 199.322 91.886 L 199.322 102.886 L 188.323 102.886 L 188.323 91.886 Z M 166.323 92.886 L 167.323 92.886 C 168.434 92.886 169.051 93.283 169.542 93.98 C 170.032 94.677 170.323 95.74 170.323 96.886 L 170.323 113.886 C 170.332 114.351 170.707 114.782 171.167 114.855 C 175.661 115.61 181.615 115.929 186.979 116.886 C 188.014 117.075 189.115 117.292 190.01 117.511 C 193.027 118.256 195.669 119.3 197.478 120.792 C 198.242 121.422 198.854 122.147 199.322 122.949 C 199.49 123.257 199.541 123.36 199.697 123.699 C 200.09 124.616 200.32 125.639 200.322 126.855 C 200.322 126.867 200.322 126.875 200.322 126.886 L 197.447 149.886 L 161.948 149.886 C 159.542 143.78 155.455 138.368 155.323 132.854 C 155.271 127.876 156.562 125.154 158.105 123.354 C 159.647 121.555 161.503 120.695 162.917 119.667 C 163.161 119.487 163.316 119.19 163.323 118.886 L 163.323 96.886 C 163.323 95.597 163.565 94.529 164.011 93.886 C 164.457 93.243 165.058 92.886 166.323 92.886 L 166.323 92.886 Z M 133.137 114.886 C 132.678 114.973 132.316 115.42 132.324 115.886 L 132.324 128.886 C 132.324 129.41 132.801 129.886 133.324 129.886 L 146.324 129.886 C 146.847 129.886 147.324 129.41 147.324 128.886 L 147.324 115.886 C 147.324 115.363 146.847 114.886 146.324 114.886 C 141.935 114.886 137.511 114.886 133.137 114.886 Z M 134.324 116.886 L 145.324 116.886 L 145.324 127.886 L 134.324 127.886 L 134.324 116.886 Z M 194.604 116.886 L 199.322 116.886 L 199.322 119.793 C 199.137 119.616 198.958 119.425 198.76 119.261 C 197.567 118.277 196.156 117.517 194.604 116.886 Z"></path>
</svg>
